HIERARCHY
ROOT Hips
{
	OFFSET -3.958830 18.904000 13.208200
	CHANNELS 6 Xposition Yposition Zposition Zrotation Yrotation Xrotation 
	JOINT LHipJoint
	{
		OFFSET 0.000000 0.000000 0.000000
		CHANNELS 3 Zrotation Yrotation Xrotation
		JOINT LeftUpLeg
		{
			OFFSET 1.800000 -1.400000 0.085000
			CHANNELS 3 Zrotation Yrotation Xrotation
			JOINT LeftLeg
			{
				OFFSET 2.215000 -6.000000 0.000000
				CHANNELS 3 Zrotation Yrotation Xrotation
				JOINT LeftFoot
				{
					OFFSET 2.500000 -6.900000 0.000000
					CHANNELS 3 Zrotation Yrotation Xrotation
					JOINT LeftToeBase
					{
						OFFSET 0.200000 -0.500000 1.950000
						CHANNELS 3 Zrotation Yrotation Xrotation
						End Site
						{
							OFFSET 0.000000 0.000000 0.000000
						}
					}
				}
			}
		}
	}
	JOINT RHipJoint
	{
		OFFSET 0.000000 0.000000 0.000000
		CHANNELS 3 Zrotation Yrotation Xrotation
		JOINT RightUpLeg
		{
			OFFSET -1.800000 -1.400000 0.085000
			CHANNELS 3 Zrotation Yrotation Xrotation
			JOINT RightLeg
			{
				OFFSET -2.215000 -6.000000 0.000000
				CHANNELS 3 Zrotation Yrotation Xrotation
				JOINT RightFoot
				{
					OFFSET -2.500000 -6.900000 0.000000
					CHANNELS 3 Zrotation Yrotation Xrotation
					JOINT RightToeBase
					{
						OFFSET -0.200000 -0.500000 1.950000
						CHANNELS 3 Zrotation Yrotation Xrotation
						End Site
						{
							OFFSET 0.000000 0.000000 0.000000
						}
					}
				}
			}
		}
	}
	JOINT LowerBack
	{
		OFFSET 0.000000 0.000000 0.000000
		CHANNELS 3 Zrotation Yrotation Xrotation
		JOINT Spine
		{
			OFFSET -0.087000 1.940000 -0.288900
			CHANNELS 3 Zrotation Yrotation Xrotation
			JOINT Spine1
			{
				OFFSET 0.000000 1.950000 0.060000
				CHANNELS 3 Zrotation Yrotation Xrotation
				JOINT Neck
				{
					OFFSET 0.000000 0.000000 0.000000
					CHANNELS 3 Zrotation Yrotation Xrotation
					JOINT Neck1
					{
						OFFSET 0.000000 1.600000 0.340000
						CHANNELS 3 Zrotation Yrotation Xrotation
						JOINT Head
						{
							OFFSET 0.000000 1.667000 -0.240000
							CHANNELS 3 Zrotation Yrotation Xrotation
							End Site
							{
								OFFSET 0.000000 0.000000 0.000000
							}
						}
					}
				}
				JOINT LeftShoulder
				{
					OFFSET 0.000000 0.000000 0.000000
					CHANNELS 3 Zrotation Yrotation Xrotation
					JOINT LeftArm
					{
						OFFSET 2.700000 1.550000 -0.730000
						CHANNELS 3 Zrotation Yrotation Xrotation
						JOINT LeftForeArm
						{
							OFFSET 5.450000 0.000000 0.000000
							CHANNELS 3 Zrotation Yrotation Xrotation
							JOINT LeftHand
							{
								OFFSET 3.450000 0.000000 0.000000
								CHANNELS 3 Zrotation Yrotation Xrotation
								JOINT LeftHandIndex1
								{
									OFFSET 0.750000 0.000000 0.000000
									CHANNELS 3 Zrotation Yrotation Xrotation
									End Site
									{
										OFFSET 0.000000 0.000000 0.000000
									}
								}
							}
						}
					}
				}
				JOINT RightShoulder
				{
					OFFSET 0.000000 0.000000 0.000000
					CHANNELS 3 Zrotation Yrotation Xrotation
					JOINT RightArm
					{
						OFFSET -2.700000 1.550000 -0.730000
						CHANNELS 3 Zrotation Yrotation Xrotation
						JOINT RightForeArm
						{
							OFFSET -5.450000 0.000000 0.000000
							CHANNELS 3 Zrotation Yrotation Xrotation
							JOINT RightHand
							{
								OFFSET -3.450000 0.000000 0.000000
								CHANNELS 3 Zrotation Yrotation Xrotation
								JOINT RightHandIndex1
								{
									OFFSET -0.750000 0.000000 0.000000
									CHANNELS 3 Zrotation Yrotation Xrotation
									End Site
									{
										OFFSET 0.000000 0.000000 0.000000
									}
								}
							}
						}
					}
				}
			}
		}
	}
}
MOTION
Frames: 14
Frame Time: 0.016667
0.615220 16.992450 -8.503870 2.719382 18.880074 1.902530 -14.628400 12.464538 3.268807 3.362061 -2.404304 -21.275024 -2.014563 2.276022 -0.760682 -0.911245 2.143878 3.599237 0.612840 0.351710 0.730480 18.712594 -11.391430 2.517822 -15.431474 4.605427 -13.205759 12.860600 -9.068588 26.353503 -0.648505 -5.032428 2.297727 0.241520 -0.418400 0.030780 -5.481029 0.203409 -7.465950 26.511509 -6.482890 21.742008 -17.048119 -3.591127 4.442188 4.177531 -9.772925 -10.551814 -25.759172 29.562289 52.476899 -7.325780 18.007120 -13.656670 -31.541990 -6.051574 3.044047 -51.425926 9.003022 -7.017722 -12.748560 0.456797 -2.102676 -3.337901 2.685584 0.843790 -0.350300 0.353460 -0.096680 22.095725 11.396786 4.526180 67.877002 18.879494 2.632552 80.205433 72.614094 47.861149 3.069550 -0.829009 -0.169950 0.107980 -0.091940 -0.430750 
0.592360 17.009060 -8.566200 2.977747 17.344618 2.921962 -14.703301 12.691986 3.358747 2.848393 -2.677164 -24.425874 -1.257212 2.441556 2.575334 -0.927744 1.971076 3.632452 0.601340 0.339910 0.735680 18.595086 -11.328444 2.608820 -15.060774 5.199155 -16.096966 11.364137 -8.534056 27.906751 -0.580928 -4.849401 2.334782 0.227420 -0.421090 0.061830 -5.179030 -0.232467 -7.569378 22.946549 -5.605703 24.701890 -14.068597 -2.423412 4.839954 3.737579 -9.675828 -10.921218 -24.692193 28.867200 51.173789 -8.510250 18.569640 -14.316740 -29.099752 -6.917522 3.384248 -51.744836 6.935100 -7.065547 -16.467139 0.066065 -2.435791 -3.375394 2.765087 0.810910 -0.330170 0.350630 -0.109010 20.804786 13.338759 4.702208 66.993871 22.462299 3.781815 73.801351 76.221404 45.331995 3.066365 -0.851299 -0.146650 0.069840 -0.090350 -0.426990 
0.565980 17.027120 -8.637160 3.101702 16.047537 4.561335 -14.780704 12.746864 3.506031 2.438867 -3.073627 -28.442493 -0.578814 2.641165 5.799970 -0.960131 1.903880 3.644811 0.566400 0.310340 0.691860 18.518838 -11.191449 2.711979 -14.665563 5.860334 -19.393876 9.989954 -8.047536 29.470450 -0.505877 -4.730757 2.373296 0.224290 -0.367930 0.076370 -4.918873 -0.537846 -7.683754 19.661995 -4.680029 26.727134 -11.471447 -1.433855 5.636727 3.092717 -9.851634 -11.192493 -23.927166 28.391598 48.447618 -9.206730 18.998110 -14.440930 -25.831038 -7.546481 3.925797 -51.956793 5.541191 -7.639771 -20.959950 -2.151007 -2.679830 -3.430960 2.843853 0.771320 -0.279030 0.308100 -0.102390 19.104644 15.108255 4.870657 65.751766 26.528482 4.820415 64.966874 79.534843 41.360622 2.866443 -1.083176 -0.161040 0.069000 -0.066410 -0.417050 
0.551990 17.065310 -8.715250 2.044427 14.102848 5.546354 -14.839281 12.771815 3.612391 2.801849 -2.947145 -32.005529 0.739666 2.806599 8.346423 -0.953920 1.910119 3.611853 0.543190 0.300600 0.658260 18.470474 -11.055657 2.834363 -13.362467 6.523192 -21.706800 8.826380 -7.332476 29.711921 -0.436561 -4.462820 2.480647 0.218500 -0.352660 0.083620 -4.708474 -0.710962 -7.779040 17.986855 -3.867978 29.327913 -9.108934 -0.256270 6.452709 2.689261 -10.247484 -11.856614 -24.056798 28.162876 46.558681 -10.117930 18.910070 -15.320810 -22.371098 -8.267468 4.828532 -52.836037 5.425935 -9.341268 -25.942348 -6.874788 -2.511109 -3.442291 2.914519 0.743120 -0.257430 0.289360 -0.109710 16.735664 17.278925 5.270596 63.308040 30.461892 3.946939 54.370634 81.975816 35.255125 2.594673 -1.395218 -0.153460 0.063380 -0.047030 -0.406600 
0.549000 17.121980 -8.794830 0.455534 11.823226 5.939668 -14.853686 12.756561 3.660770 3.386099 -2.461837 -35.184500 2.358549 3.046282 11.522389 -0.948095 2.040487 3.520978 0.562480 0.325680 0.670030 18.470859 -10.991114 2.938537 -11.729551 7.065252 -22.869401 7.912589 -6.535137 28.850436 -0.395978 -4.104448 2.595896 0.234220 -0.383660 0.087060 -4.630542 -0.652906 -7.824507 17.542994 -3.270222 32.559271 -7.844113 0.970198 7.321750 2.303001 -10.809139 -12.515411 -25.055449 28.283890 44.634190 -11.224740 18.482060 -17.667720 -19.902099 -9.309832 5.803371 -52.184056 5.920881 -11.129358 -31.826206 -12.100166 -1.917602 -3.390439 3.004001 0.753590 -0.281060 0.303890 -0.117980 15.206712 19.602114 5.568355 60.205218 33.609838 1.018974 38.924002 83.264991 23.916337 2.324964 -1.617033 -0.143830 0.057750 -0.047380 -0.410260 
0.530310 17.156760 -8.872700 -0.787366 9.660288 6.032129 -14.916835 12.816838 3.644671 3.694829 -1.645136 -37.169754 3.905108 3.180590 12.922357 -0.880885 2.088303 3.473226 0.633330 0.443390 0.687890 18.424813 -10.817339 3.089080 -11.016094 8.104178 -24.028750 8.057535 -6.195462 29.430519 -0.429033 -4.033000 2.616040 0.279490 -0.428820 0.083870 -4.418023 -0.849851 -7.900532 15.657580 -1.752422 36.509448 -5.087116 2.748454 8.354227 1.422676 -11.589397 -13.321156 -26.861402 28.096324 42.538499 -10.847520 16.978050 -20.625860 -16.505656 -10.650227 7.041715 -52.751883 6.068447 -12.894842 -38.262414 -16.555890 -1.017480 -3.301185 3.108660 0.738960 -0.329120 0.351280 -0.090450 13.773324 22.919854 5.865496 54.527261 36.025445 -4.125433 13.691068 84.583930 3.320202 2.094586 -1.553705 -0.087640 0.062230 -0.099580 -0.372740 
0.514850 17.186730 -8.940590 -1.872137 7.928878 5.535105 -15.048680 13.049398 3.576403 3.943015 -0.624548 -38.014960 5.126547 3.322223 13.295358 -0.833098 2.137238 3.425897 0.662090 0.506660 0.706080 18.297096 -10.573568 3.195846 -10.824831 9.044951 -24.203323 8.948641 -6.091301 29.702626 -0.454865 -4.050986 2.617980 0.295580 -0.478920 0.084370 -4.009675 -1.462533 -7.970699 12.828625 0.470132 40.517873 -1.573708 4.711024 9.892041 1.168272 -11.799723 -13.685971 -26.538176 26.864324 42.237396 -12.503950 16.170860 -23.188090 -13.207539 -11.795749 8.172116 -52.801340 6.218572 -14.330638 -45.922630 -19.695142 0.032449 -3.236968 3.190933 0.727840 -0.350630 0.386750 -0.092170 11.055622 26.091956 5.460331 47.896159 37.642348 -10.820359 -23.892567 83.586549 -26.975092 1.851091 -0.824314 -0.048360 0.049860 -0.128680 -0.363030 
0.517190 17.182050 -8.990530 -3.017393 7.034329 4.895892 -15.147397 13.218944 3.442073 3.769546 0.286231 -38.563883 6.882776 3.336120 13.563022 -0.803216 2.163553 3.374509 0.701420 0.576050 0.738540 18.215729 -10.311502 3.339294 -11.769109 10.313781 -24.232973 11.554111 -6.631731 30.388510 -0.527432 -4.350884 2.499482 0.317630 -0.536900 0.099580 -3.733086 -1.959235 -8.009075 10.863973 2.095536 44.348498 0.613339 5.981222 10.880734 0.946916 -12.114717 -13.405562 -26.091961 25.790461 40.638652 -13.657200 15.298430 -26.522380 -10.728773 -11.923523 9.013116 -51.661739 7.616394 -15.529908 -54.046726 -21.858729 1.198188 -3.176046 3.275633 0.720520 -0.375030 0.425260 -0.111170 8.911452 27.930935 4.201819 42.042714 38.654567 -14.253768 -39.096554 79.197519 -35.058191 1.698402 -0.281079 -0.000890 0.026650 -0.146730 -0.360000 
0.510320 17.169530 -9.040500 -3.552994 6.543377 4.246168 -15.248836 13.382263 3.341175 3.028268 0.895379 -39.158623 8.341413 3.369072 14.076050 -0.804799 2.222649 3.347721 0.711140 0.599710 0.742550 18.124576 -10.074006 3.440480 -13.434876 11.305350 -23.924368 14.367649 -7.208394 30.538738 -0.590744 -4.673414 2.384796 0.337200 -0.551390 0.083700 -3.450993 -2.467773 -8.044660 8.881231 4.022097 47.439350 2.582153 7.228009 13.333040 1.059187 -12.037028 -14.123014 -25.214630 24.271911 40.953357 -13.862230 14.190060 -27.339360 -7.648012 -13.979671 10.545645 -50.509955 8.932778 -16.781741 -61.655135 -24.269102 2.539013 -3.098686 3.318795 0.732310 -0.385600 0.435110 -0.108050 5.695039 31.342933 3.957153 35.735278 39.347263 -17.177773 -54.710091 71.179778 -40.691285 1.591965 0.135462 -0.009800 0.044320 -0.155590 -0.364910 
0.493720 17.146140 -9.069790 -3.547376 6.939353 3.401155 -15.405010 13.641041 3.209910 1.436435 1.306346 -39.384505 10.211959 3.294013 14.162336 -0.802932 2.196572 3.384520 0.776920 0.710000 0.780300 17.985944 -9.696762 3.539348 -16.070307 12.293063 -23.027950 18.653116 -8.070242 30.180933 -0.707209 -5.136718 2.256074 0.403840 -0.559310 0.028720 -3.035508 -3.380412 -8.061386 6.314423 6.853798 51.133727 5.622484 8.840089 15.815919 0.773457 -12.041596 -14.077597 -24.604732 21.982957 39.919954 -12.938260 11.940330 -29.748880 -4.673250 -14.606208 11.286936 -48.687466 9.037263 -16.812776 -69.465790 -25.929405 4.321142 -2.993614 3.307570 0.739590 -0.408040 0.459590 -0.069650 2.994870 33.761346 3.298033 27.605370 38.380808 -18.872344 -65.217102 62.308071 -43.273216 1.763261 -0.073468 -0.018080 0.128310 -0.216280 -0.352680 
0.491440 17.085080 -9.084530 -4.009598 7.285161 3.490047 -15.524080 13.678394 3.162477 -0.023453 1.567286 -41.240462 12.483999 3.262524 14.541311 -0.804867 2.264232 3.442417 0.882110 0.885230 0.867720 17.921470 -9.301822 3.657409 -18.210682 13.068924 -22.627762 22.888207 -8.603159 28.738296 -0.810070 -5.470729 2.199241 0.546910 -0.518120 -0.084370 -2.766999 -3.990399 -8.108916 4.833092 9.336830 53.232481 9.208980 10.258197 17.736509 -0.499657 -12.171062 -12.460960 -23.378789 19.387183 36.873017 -12.356900 10.169810 -31.207220 -0.801790 -12.585740 11.153327 -46.832416 8.091536 -14.860324 -77.034920 -25.292408 5.721699 -2.866730 3.232548 0.718510 -0.396700 0.471980 0.031950 0.876844 33.667646 1.181536 21.181344 38.040880 -18.738873 -66.150167 54.406965 -39.808473 1.953251 -0.537910 -0.088270 0.295390 -0.359110 -0.329210 
0.493380 17.001900 -9.112480 -4.725591 6.332489 3.552759 -15.607510 13.642483 3.103798 -1.053847 2.185464 -44.160466 15.357953 3.405311 16.635580 -0.759699 2.654529 3.365742 0.882280 0.924480 0.848910 17.901902 -8.950032 3.836144 -19.952443 14.283247 -22.941439 26.590392 -8.940290 27.875295 -0.864969 -5.803746 2.156858 0.616680 -0.405600 -0.189260 -2.591647 -4.302460 -8.190830 3.826203 12.017864 54.842400 11.328080 12.248988 20.469822 -1.011889 -11.768163 -12.548943 -22.027836 17.146029 36.479785 -9.082690 8.617070 -29.035820 3.754661 -12.701595 12.278785 -46.032672 8.470961 -13.974032 -83.210534 -27.607976 8.773799 -2.725812 3.171333 0.697010 -0.359720 0.431320 0.117810 -3.161372 34.885745 0.361083 15.197635 35.732684 -21.044453 -67.885718 45.659351 -36.982739 2.251471 -1.000623 -0.190230 0.442010 -0.430910 -0.287460 
0.510560 16.889320 -9.136610 -4.918684 7.088898 3.541796 -15.631422 13.337581 3.187153 -2.568802 1.763025 -47.585231 18.101303 3.299902 20.147896 -0.766062 3.229809 3.220519 0.861000 0.950610 0.787610 17.954780 -8.628712 4.040712 -23.005782 15.135065 -23.218323 31.294536 -9.678759 26.730515 -0.963033 -6.323227 2.036328 0.702110 -0.242250 -0.281840 -2.618737 -4.228479 -8.318872 3.891806 13.547104 56.849053 12.302555 13.460861 22.524228 -1.907265 -10.663450 -11.875457 -19.092316 14.592898 35.191035 -4.712640 6.746310 -28.279330 10.052079 -11.278492 12.327584 -44.958837 6.854515 -11.801978 -87.738249 -29.506125 12.096082 -2.601785 3.083294 0.701520 -0.304490 0.384180 0.199800 -8.406120 32.953876 -0.079393 12.008762 33.081287 -22.669898 -68.640397 37.728980 -33.692564 2.323499 -1.235875 -0.324410 0.641700 -0.447590 -0.241280 
0.543040 16.751820 -9.158680 -4.786988 7.255312 4.056164 -15.694676 12.935857 3.359176 -3.894678 0.953646 -51.599474 20.755341 3.008355 24.499303 -0.632707 3.835224 2.967107 1.081900 1.259580 0.839950 18.007573 -8.122738 4.299019 -27.026071 15.991471 -24.102566 36.850914 -10.342679 25.187174 -1.187717 -6.896807 1.835187 0.876730 -0.259030 -0.260160 -2.570905 -4.321097 -8.508555 2.974867 15.563244 58.014902 14.188133 14.634107 23.891459 -3.389456 -9.444553 -10.208024 -16.478589 12.484507 33.620966 -0.824680 5.253570 -29.021850 16.092791 -7.982709 11.410635 -43.445844 3.028050 -7.751807 -92.676187 -29.992919 15.484839 -2.359791 3.284974 0.647400 -0.319460 0.448820 0.329460 -12.647737 29.141424 -0.441912 9.407141 31.526125 -21.418474 -66.604934 30.926135 -28.963062 2.303469 -1.546866 -0.231920 0.639690 -0.600430 -0.160790 
